<?xml version="1.0" encoding="UTF-8"?>
<svg width="334px" height="580px" viewBox="0 0 334 580" version="1.1" xmlns="http://www.w3.org/2000/svg" xmlns:xlink="http://www.w3.org/1999/xlink">
    <!-- Generator: Sketch 48.1 (47250) - http://www.bohemiancoding.com/sketch -->
    <title>artboard-pint</title>
    <desc>Created with Sketch.</desc>
    <defs>
        <linearGradient x1="13.2927463%" y1="32.5015843%" x2="79.6125218%" y2="32.5015843%" id="linearGradient-1">
            <stop stop-color="#FFFFFF" offset="0%"></stop>
            <stop stop-color="#FFFEFE" stop-opacity="0.308367301" offset="100%"></stop>
        </linearGradient>
    </defs>
    <g id="Pint" stroke="none" stroke-width="1" fill="none" fill-rule="evenodd">
        <g id="artboard-pint">
            <g id="beer" transform="translate(18.000000, 18.000000)">
                <path d="M1.2890625,3.74609375 C-0.8203125,8.27539063 5.5,67.7167969 5.5,94.9375 C5.5,122.158203 1.2890625,125.296875 1.2890625,141.492188 C1.2890625,157.6875 12.7285156,193.429688 14.7851562,204.300781 C16.8417969,215.171875 37.859375,523.550781 41.859375,530.136719 C45.859375,536.722656 98.5244767,546.113281 154.517578,546.113281 C210.51068,546.113281 260.900391,537.244141 263.820312,530.136719 C266.740234,523.029297 286.193359,217.283203 288.529297,204.300781 C290.865234,191.318359 298.328125,157.65625 298.328125,141.492188 C298.328125,125.328125 293.480469,119.060547 293.480469,94.9375 C293.480469,70.8144531 301.294922,8.9296875 298.328125,3.74609375 C295.361328,-1.4375 3.3984375,-0.783203125 1.2890625,3.74609375 Z" id="beer-liquid" fill="#BE7016"></path>
                <g id="bubbles" transform="translate(214.000000, 536.000000)" fill="#ECD7C4">
                    <circle id="bubble" cx="1.5" cy="1.5" r="1.5"></circle>
                </g>
                <path d="M4.48632812,6.65234375 C8.16796875,1.94335938 75.8351404,1.94335938 149,1.94335938 C222.16486,1.94335938 292.896484,2.27539063 295.337891,6.65234375 C297.779297,11.0292969 295.337891,95.0917969 289.939453,101 C284.541016,106.908203 12.2148437,106.724609 8.16796875,101 C4.12109375,95.2753906 0.8046875,11.3613281 4.48632812,6.65234375 Z" id="beer-foam" fill="#ECD7C4"></path>
            </g>
            <g id="glass" transform="translate(18.000000, 18.000000)">
                <path d="M1.2890625,3.74609375 C-0.8203125,8.27539063 5.5,67.7167969 5.5,94.9375 C5.5,122.158203 1.2890625,125.296875 1.2890625,141.492188 C1.2890625,157.6875 12.7285156,193.429688 14.7851562,204.300781 C16.8417969,215.171875 37.859375,523.550781 41.859375,530.136719 C45.859375,536.722656 98.5244767,546.113281 154.517578,546.113281 C210.51068,546.113281 260.900391,537.244141 263.820312,530.136719 C266.740234,523.029297 286.193359,217.283203 288.529297,204.300781 C290.865234,191.318359 298.328125,157.65625 298.328125,141.492188 C298.328125,125.328125 293.480469,119.060547 293.480469,94.9375 C293.480469,70.8144531 301.294922,8.9296875 298.328125,3.74609375 C295.361328,-1.4375 3.3984375,-0.783203125 1.2890625,3.74609375 Z" id="glass-outline" stroke="#FFFFFF" stroke-width="10"></path>
                <g id="Pintmark" opacity="0.752264493" transform="translate(119.000000, 119.000000)">
                    <g id="helmet" stroke-width="1" transform="translate(1.600000, 8.480000)">
                        <path d="M57.0116986,0.148188405 C61.2135103,4.271512 61.415418,15.0682945 57.6026862,23.6161905 C53.7899543,32.1640865 45.1822286,34.56 44.5147419,34.56 C43.8472552,34.56 44.1419774,32.018386 42.9421194,28.116779 C41.947003,24.880935 40.9728925,23.5501848 40.5051188,22.6401819 C40.0373451,21.730179 46.1886318,24.2111741 51.7984674,18.6110181 C57.408303,13.0108621 55.2034808,-1.62625263 57.0116986,0.148188405 Z" id="helmet-horn-right" stroke="#FFFFFF" stroke-width="0.96"></path>
                        <path d="M16.5316986,0.308188405 C20.7335103,4.431512 20.935418,15.2282945 17.1226862,23.7761905 C13.3099543,32.3240865 4.70222865,34.72 4.03474192,34.72 C3.3672552,34.72 3.66197737,32.178386 2.46211937,28.276779 C1.46700295,25.040935 0.492892453,23.7101848 0.0251187599,22.8001819 C-0.442654933,21.890179 5.70863183,24.3711741 11.3184674,18.7710181 C16.928303,13.1708621 14.7234808,-1.46625263 16.5316986,0.308188405 Z" id="helmet-horn-left" stroke="#FFFFFF" stroke-width="0.96" transform="translate(9.920000, 17.440000) scale(-1, 1) translate(-9.920000, -17.440000) "></path>
                        <path d="M30.1987884,6.4 C31.4575165,6.4 34.8680157,17.4726797 33.6682891,16.5387977 C32.4685625,15.6049156 28.5795845,15.2510796 26.7184163,16.5387977 C24.8572482,17.8265157 28.9400603,6.4 30.1987884,6.4 Z" id="helmet-horn-top" stroke="#FFFFFF" stroke-width="0.96"></path>
                        <ellipse id="helmet-button-middle" fill="#FFFFFF" cx="30.08" cy="21.76" rx="1.6" ry="1.28"></ellipse>
                        <ellipse id="helmet-button-top" fill="#FFFFFF" cx="30.08" cy="17.44" rx="1.6" ry="1"></ellipse>
                        <ellipse id="helmet-button-front" fill="#FFFFFF" cx="30.08" cy="30.8" rx="1.6" ry="1.52"></ellipse>
                        <ellipse id="helpmet-button-right" fill="#FFFFFF" cx="41.68" cy="34" rx="1.04" ry="1.52"></ellipse>
                        <ellipse id="helmet-button-left" fill="#FFFFFF" cx="18.8" cy="33.84" rx="1.04" ry="1.52"></ellipse>
                        <path d="M30.2949614,15.84 C42.0788769,15.84 44.48,35.0056396 44.48,37.3204829 C44.48,39.6353261 40.631408,34.5002358 30.5420253,34.5002358 C20.4526426,34.5002358 15.84,39.6353261 15.84,37.3204829 C15.84,35.0056396 18.5110459,15.84 30.2949614,15.84 Z" id="helmet-outline" stroke="#FFFFFF" stroke-width="0.96"></path>
                        <path d="M27.36,16.48 C26.4636393,27.6273534 27.36,29.2168739 26.7148199,29.2168739 C25.4227445,29.2168739 20.7150188,30.0272054 16.64,32.48" id="helmet-panel-right" stroke="#FFFFFF" stroke-width="0.96"></path>
                        <path d="M43.68,16.48 C42.7836393,27.6273534 43.68,29.2168739 43.0348199,29.2168739 C41.7427445,29.2168739 37.0350188,30.0272054 32.96,32.48" id="helmet-panel-right" stroke="#FFFFFF" stroke-width="0.96" transform="translate(38.320000, 24.480000) scale(-1, 1) translate(-38.320000, -24.480000) "></path>
                    </g>
                    <path d="M17.49625,49.6575 L17.49625,50.4525 C17.3562493,50.4825001 17.2425004,50.5249997 17.155,50.58 C17.0674996,50.6350003 17.02625,50.6899997 17.03125,50.745 C17.0412501,50.8150003 17.1087494,50.8899996 17.23375,50.97 C17.4587511,51.1250008 17.6212495,51.2924991 17.72125,51.4725 C17.8212505,51.6525009 17.87125,51.8699987 17.87125,52.125 C17.87125,52.5050019 17.7275014,52.8324986 17.44,53.1075 C17.1524986,53.3825014 16.813752,53.52 16.42375,53.52 C15.9987479,53.52 15.6437514,53.3737515 15.35875,53.08125 C15.0737486,52.7887485 14.93125,52.4250022 14.93125,51.99 C14.93125,51.5799979 15.0549988,51.1975018 15.3025,50.8425 C15.5500012,50.4874982 15.8862479,50.207501 16.31125,50.0025 C16.5812513,49.8724993 16.9762474,49.7575005 17.49625,49.6575 Z M18.15625,50.4525 L18.15625,49.635 L18.35875,49.635 C18.8787526,49.635 19.3749976,49.7212491 19.8475,49.89375 C20.3200024,50.0662509 20.7137484,50.3049985 21.02875,50.61 C21.5587526,51.1250026 21.82375,51.7749961 21.82375,52.56 C21.82375,53.2350034 21.625002,53.8337474 21.2275,54.35625 C20.829998,54.8787526 20.2662536,55.2874985 19.53625,55.5825 L18.55375,55.9725 C18.2687486,56.0875006 17.8662526,56.2874986 17.34625,56.5725 L17.12125,56.7 C16.921249,56.7 16.7287509,56.7262497 16.54375,56.77875 C16.3587491,56.8312503 16.0912518,56.9324992 15.74125,57.0825 C15.9212509,56.8424988 16.1024991,56.6350009 16.285,56.46 C16.4675009,56.2849991 16.7412482,56.0550014 17.10625,55.77 C17.5762524,55.4049982 17.8924992,55.1412508 18.055,54.97875 C18.2175008,54.8162492 18.3562494,54.6275011 18.47125,54.4125 C18.5862506,54.1924989 18.6699997,53.9337515 18.7225,53.63625 C18.7750003,53.3387485 18.80125,52.9625023 18.80125,52.5075 C18.80125,51.707496 18.7312507,51.1675014 18.59125,50.8875 C18.5362497,50.7774994 18.4775003,50.6925003 18.415,50.6325 C18.3524997,50.5724997 18.2662506,50.5125003 18.15625,50.4525 Z M21.76375,56.67 C21.8737506,56.665 21.9649996,56.7099995 22.0375,56.805 C22.1100004,56.9000005 22.14625,57.0249992 22.14625,57.18 C22.14625,57.5250017 22.0550009,57.9112479 21.8725,58.33875 C21.6899991,58.7662521 21.4712513,59.1099987 21.21625,59.37 C20.9962489,59.5950011 20.7237516,59.7774993 20.39875,59.9175 C20.0737484,60.0575007 19.7662514,60.1275 19.47625,60.1275 C19.1262482,60.1275 18.7562519,60.0700006 18.36625,59.955 L17.37625,59.6625 C16.8212472,59.5024992 16.4612508,59.4225 16.29625,59.4225 C16.0762489,59.4225 15.8437512,59.5274989 15.59875,59.7375 C15.4437492,59.8675006 15.3262504,59.9325 15.24625,59.9325 C15.1312494,59.9325 15.0425003,59.8950004 14.98,59.82 C14.9174997,59.7449996 14.88625,59.6375007 14.88625,59.4975 C14.88625,59.2274986 14.9487494,58.9525014 15.07375,58.6725 C15.1987506,58.3924986 15.3687489,58.147501 15.58375,57.9375 C16.0387523,57.4924978 16.6587461,57.27 17.44375,57.27 C17.8087518,57.27 18.3012469,57.3274994 18.92125,57.4425 C19.8262545,57.6125008 20.4162486,57.6975 20.69125,57.6975 C20.9312512,57.6975 21.1087494,57.6375006 21.22375,57.5175 C21.2637502,57.4724998 21.2949999,57.4212503 21.3175,57.36375 C21.3400001,57.3062497 21.3687498,57.2025007 21.40375,57.0525 C21.4587503,56.8074988 21.5787491,56.68 21.76375,56.67 Z M27.14875,60.1275 C26.6237474,60.0624997 26.157502,59.9137512 25.75,59.68125 C25.342498,59.4487488 24.9637518,59.1125022 24.61375,58.6725 C24.2287481,58.1924976 23.936251,57.6300032 23.73625,56.985 C23.536249,56.3399968 23.43625,55.6375038 23.43625,54.8775 C23.43625,54.1224962 23.536249,53.4225032 23.73625,52.7775 C23.936251,52.1324968 24.2287481,51.5700024 24.61375,51.09 C24.9637518,50.6499978 25.342498,50.3137512 25.75,50.08125 C26.157502,49.8487488 26.6237474,49.7000003 27.14875,49.635 L27.14875,50.415 C27.0087493,50.4600002 26.9112503,50.4987498 26.85625,50.53125 C26.8012497,50.5637502 26.7487503,50.6124997 26.69875,50.6775 C26.5537493,50.8625009 26.48125,51.1299982 26.48125,51.48 L26.48125,58.2825 C26.48125,58.6325017 26.5537493,58.8999991 26.69875,59.085 C26.7487503,59.1500003 26.8012497,59.1987498 26.85625,59.23125 C26.9112503,59.2637502 27.0087493,59.3024998 27.14875,59.3475 L27.14875,60.1275 Z M27.72625,60.1275 L27.72625,59.3475 C27.8662507,59.3024998 27.9637497,59.2637502 28.01875,59.23125 C28.0737503,59.1987498 28.1262497,59.1500003 28.17625,59.085 C28.3212507,58.8999991 28.39375,58.6325017 28.39375,58.2825 L28.39375,51.48 C28.39375,51.1299982 28.3212507,50.8625009 28.17625,50.6775 C28.1262497,50.6124997 28.0737503,50.5637502 28.01875,50.53125 C27.9637497,50.4987498 27.8662507,50.4600002 27.72625,50.415 L27.72625,49.635 C28.2512526,49.7000003 28.717498,49.8487488 29.125,50.08125 C29.532502,50.3137512 29.9112482,50.6499978 30.26125,51.09 C30.6462519,51.5700024 30.938749,52.1324968 31.13875,52.7775 C31.338751,53.4225032 31.43875,54.1224962 31.43875,54.8775 C31.43875,55.6375038 31.338751,56.3399968 31.13875,56.985 C30.938749,57.6300032 30.6462519,58.1924976 30.26125,58.6725 C29.9112482,59.1125022 29.532502,59.4487488 29.125,59.68125 C28.717498,59.9137512 28.2512526,60.0624997 27.72625,60.1275 Z M35.96875,60.1275 C35.4437474,60.0624997 34.977502,59.9137512 34.57,59.68125 C34.162498,59.4487488 33.7837518,59.1125022 33.43375,58.6725 C33.0487481,58.1924976 32.756251,57.6300032 32.55625,56.985 C32.356249,56.3399968 32.25625,55.6375038 32.25625,54.8775 C32.25625,54.1224962 32.356249,53.4225032 32.55625,52.7775 C32.756251,52.1324968 33.0487481,51.5700024 33.43375,51.09 C33.7837518,50.6499978 34.162498,50.3137512 34.57,50.08125 C34.977502,49.8487488 35.4437474,49.7000003 35.96875,49.635 L35.96875,50.415 C35.8287493,50.4600002 35.7312503,50.4987498 35.67625,50.53125 C35.6212497,50.5637502 35.5687503,50.6124997 35.51875,50.6775 C35.3737493,50.8625009 35.30125,51.1299982 35.30125,51.48 L35.30125,58.2825 C35.30125,58.6325017 35.3737493,58.8999991 35.51875,59.085 C35.5687503,59.1500003 35.6212497,59.1987498 35.67625,59.23125 C35.7312503,59.2637502 35.8287493,59.3024998 35.96875,59.3475 L35.96875,60.1275 Z M36.54625,60.1275 L36.54625,59.3475 C36.6862507,59.3024998 36.7837497,59.2637502 36.83875,59.23125 C36.8937503,59.1987498 36.9462497,59.1500003 36.99625,59.085 C37.1412507,58.8999991 37.21375,58.6325017 37.21375,58.2825 L37.21375,51.48 C37.21375,51.1299982 37.1412507,50.8625009 36.99625,50.6775 C36.9462497,50.6124997 36.8937503,50.5637502 36.83875,50.53125 C36.7837497,50.4987498 36.6862507,50.4600002 36.54625,50.415 L36.54625,49.635 C37.0712526,49.7000003 37.537498,49.8487488 37.945,50.08125 C38.352502,50.3137512 38.7312483,50.6499978 39.08125,51.09 C39.4662519,51.5700024 39.758749,52.1324968 39.95875,52.7775 C40.158751,53.4225032 40.25875,54.1224962 40.25875,54.8775 C40.25875,55.6375038 40.158751,56.3399968 39.95875,56.985 C39.758749,57.6300032 39.4662519,58.1924976 39.08125,58.6725 C38.7312483,59.1125022 38.352502,59.4487488 37.945,59.68125 C37.537498,59.9137512 37.0712526,60.0624997 36.54625,60.1275 Z M44.78875,60.1275 C44.2637474,60.0624997 43.797502,59.9137512 43.39,59.68125 C42.982498,59.4487488 42.6037518,59.1125022 42.25375,58.6725 C41.8687481,58.1924976 41.576251,57.6300032 41.37625,56.985 C41.176249,56.3399968 41.07625,55.6375038 41.07625,54.8775 C41.07625,54.1224962 41.176249,53.4225032 41.37625,52.7775 C41.576251,52.1324968 41.8687481,51.5700024 42.25375,51.09 C42.6037518,50.6499978 42.982498,50.3137512 43.39,50.08125 C43.797502,49.8487488 44.2637474,49.7000003 44.78875,49.635 L44.78875,50.415 C44.6487493,50.4600002 44.5512503,50.4987498 44.49625,50.53125 C44.4412497,50.5637502 44.3887503,50.6124997 44.33875,50.6775 C44.1937493,50.8625009 44.12125,51.1299982 44.12125,51.48 L44.12125,58.2825 C44.12125,58.6325017 44.1937493,58.8999991 44.33875,59.085 C44.3887503,59.1500003 44.4412497,59.1987498 44.49625,59.23125 C44.5512503,59.2637502 44.6487493,59.3024998 44.78875,59.3475 L44.78875,60.1275 Z M45.36625,60.1275 L45.36625,59.3475 C45.5062507,59.3024998 45.6037497,59.2637502 45.65875,59.23125 C45.7137503,59.1987498 45.7662498,59.1500003 45.81625,59.085 C45.9612507,58.8999991 46.03375,58.6325017 46.03375,58.2825 L46.03375,51.48 C46.03375,51.1299982 45.9612507,50.8625009 45.81625,50.6775 C45.7662498,50.6124997 45.7137503,50.5637502 45.65875,50.53125 C45.6037497,50.4987498 45.5062507,50.4600002 45.36625,50.415 L45.36625,49.635 C45.8912526,49.7000003 46.357498,49.8487488 46.765,50.08125 C47.172502,50.3137512 47.5512483,50.6499978 47.90125,51.09 C48.2862519,51.5700024 48.578749,52.1324968 48.77875,52.7775 C48.978751,53.4225032 49.07875,54.1224962 49.07875,54.8775 C49.07875,55.6375038 48.978751,56.3399968 48.77875,56.985 C48.578749,57.6300032 48.2862519,58.1924976 47.90125,58.6725 C47.5512483,59.1125022 47.172502,59.4487488 46.765,59.68125 C46.357498,59.9137512 45.8912526,60.0624997 45.36625,60.1275 Z" id="outline-2000" fill="#FFFFFF"></path>
                    <path d="M16.3782422,5.60257812 L16.3782422,14.6904688 C16.3782422,14.8915635 16.4169137,15.0359371 16.4942578,15.1235938 C16.535508,15.1751565 16.5741795,15.2073827 16.6102734,15.2202734 C16.6463674,15.2331641 16.7649599,15.2653904 16.9660547,15.3169531 C17.2135559,15.3736722 17.3373047,15.5154676 17.3373047,15.7423437 C17.3373047,15.8764069 17.2702741,15.9846871 17.1362109,16.0671875 C17.0382417,16.1290628 16.8758214,16.16 16.6489453,16.16 L12.7353516,16.16 C12.5497256,16.16 12.4066411,16.1251957 12.3060938,16.0555859 C12.2055464,15.9859762 12.1552734,15.8867194 12.1552734,15.7578125 C12.1552734,15.5464052 12.2583974,15.4071878 12.4646484,15.3401563 C12.6348055,15.2834372 12.7340624,15.2486329 12.7624219,15.2357422 C12.7907814,15.2228515 12.8204295,15.1932034 12.8513672,15.1467969 C12.9132425,15.0642965 12.9441797,14.9328134 12.9441797,14.7523438 L12.9441797,7.01023437 C12.9441797,6.82976472 12.9132425,6.69828166 12.8513672,6.61578125 C12.8204295,6.56937477 12.7907814,6.53972663 12.7624219,6.52683594 C12.7340624,6.51394525 12.6348055,6.47914091 12.4646484,6.42242188 C12.2583974,6.35539029 12.1552734,6.21617293 12.1552734,6.00476563 C12.1552734,5.87585873 12.2055464,5.77660191 12.3060938,5.70699219 C12.4066411,5.63738246 12.5497256,5.60257812 12.7353516,5.60257812 L16.3782422,5.60257812 Z M17.0356641,12.1149219 L17.0356641,11.2873437 C17.2573839,11.235781 17.4133589,11.1816409 17.5035938,11.1249219 C17.5938286,11.0682028 17.6724606,10.9805475 17.7394922,10.8619531 C17.847774,10.6608584 17.9019141,10.390158 17.9019141,10.0498438 L17.9019141,7.57484375 C17.9019141,7.33249879 17.8838674,7.15203184 17.8477734,7.0334375 C17.8116795,6.91484316 17.7394927,6.80656299 17.6312109,6.70859375 C17.4816789,6.56421803 17.2805872,6.47398456 17.0279297,6.43789062 L17.0279297,5.60257812 C18.0901225,5.60257812 18.8738647,5.70312399 19.3791797,5.90421875 C19.9618389,6.13625116 20.4233186,6.49202885 20.7636328,6.9715625 C21.1091033,7.4614087 21.2818359,8.06210582 21.2818359,8.77367187 C21.2818359,9.56773835 21.1065252,10.2174193 20.7558984,10.7227344 C20.4052717,11.2228931 19.9154328,11.5915613 19.2863672,11.82875 C18.7655833,12.0195322 18.0153565,12.1149219 17.0356641,12.1149219 Z" id="outline-P" fill="#FFFFFF" transform="translate(16.718555, 10.881289) rotate(-32.000000) translate(-16.718555, -10.881289) "></path>
                    <path d="M27.5258594,12.16 L23.6741406,12.16 C23.4885147,12.16 23.3454302,12.1251957 23.2448828,12.0555859 C23.1443354,11.9859762 23.0940625,11.8867194 23.0940625,11.7578125 C23.0940625,11.5464052 23.1971865,11.4071878 23.4034375,11.3401563 C23.5735946,11.2834372 23.6728514,11.2486329 23.7012109,11.2357422 C23.7295705,11.2228515 23.7592186,11.1932034 23.7901562,11.1467969 C23.8520316,11.0642965 23.8829687,10.9328134 23.8829687,10.7523438 L23.8829687,3.01023438 C23.8829687,2.82976472 23.8520316,2.69828166 23.7901562,2.61578125 C23.7592186,2.56937477 23.7295705,2.53972663 23.7012109,2.52683594 C23.6728514,2.51394525 23.5735946,2.47914091 23.4034375,2.42242187 C23.1971865,2.35539029 23.0940625,2.21617293 23.0940625,2.00476563 C23.0940625,1.87585873 23.1443354,1.77660191 23.2448828,1.70699219 C23.3454302,1.63738246 23.4885147,1.60257812 23.6741406,1.60257812 L27.5258594,1.60257812 C27.7114853,1.60257812 27.8545698,1.63738246 27.9551172,1.70699219 C28.0556646,1.77660191 28.1059375,1.87585873 28.1059375,2.00476563 C28.1059375,2.21617293 28.0028135,2.35539029 27.7965625,2.42242187 C27.6264054,2.47914091 27.5271486,2.51394525 27.4987891,2.52683594 C27.4704295,2.53972663 27.4407814,2.56937477 27.4098438,2.61578125 C27.3479684,2.69828166 27.3170312,2.82976472 27.3170312,3.01023438 L27.3170312,10.7523438 C27.3170312,10.9328134 27.3479684,11.0642965 27.4098438,11.1467969 C27.4407814,11.1932034 27.4704295,11.2228515 27.4987891,11.2357422 C27.5271486,11.2486329 27.6264054,11.2834372 27.7965625,11.3401563 C28.0028135,11.4071878 28.1059375,11.5464052 28.1059375,11.7578125 C28.1059375,11.8867194 28.0556646,11.9859762 27.9551172,12.0555859 C27.8545698,12.1251957 27.7114853,12.16 27.5258594,12.16 Z" id="outline-I" fill="#FFFFFF" transform="translate(25.600000, 6.881289) rotate(-12.000000) translate(-25.600000, -6.881289) "></path>
                    <path d="M35.2944922,1.60257812 L39.4091797,8.74914063 L39.4091797,12.16 L37.2976953,12.16 L32.0460547,3.11078125 C31.9326166,2.91484277 31.839805,2.77820351 31.7676172,2.70085938 C31.6954293,2.62351524 31.6026178,2.56679706 31.4891797,2.53070313 L31.1952734,2.42242187 C31.1179293,2.3966405 31.0560549,2.35023471 31.0096484,2.28320312 C30.963242,2.21617154 30.9400391,2.14140666 30.9400391,2.05890625 C30.9400391,1.97124956 30.963242,1.89003944 31.0096484,1.81527344 C31.0560549,1.74050744 31.1179293,1.6876564 31.1952734,1.65671875 C31.2829301,1.62062482 31.5201153,1.60257812 31.9068359,1.60257812 L35.2944922,1.60257812 Z M32.0537891,4.31734375 L32.8736328,5.67859375 L32.8736328,9.82421875 C32.8736328,10.1851581 32.9342181,10.4816395 33.0553906,10.7136719 C33.1765631,10.9457043 33.3686315,11.1364836 33.6316016,11.2860156 L33.8636328,11.4175 C33.997696,11.4948441 34.0647266,11.6108586 34.0647266,11.7655469 C34.0647266,11.8841412 34.0157427,11.982109 33.9177734,12.0594531 C33.835273,12.1264847 33.6651185,12.16 33.4073047,12.16 L31.6206641,12.16 C31.151443,12.16 30.9168359,12.0259388 30.9168359,11.7578125 C30.9168359,11.6649995 30.9413279,11.5915237 30.9903125,11.5373828 C31.0392971,11.4832419 31.1462882,11.4097661 31.3112891,11.3169531 C31.8062915,11.0436705 32.0537891,10.5460974 32.0537891,9.82421875 L32.0537891,4.31734375 Z M39.4091797,7.51164063 L38.5893359,6.1271875 L38.5893359,3.98476563 C38.5893359,3.55163846 38.5261725,3.22035271 38.3998438,2.99089844 C38.273515,2.76144417 38.0505094,2.56421957 37.7308203,2.39921875 C37.6225385,2.34765599 37.5477736,2.29222686 37.5065234,2.23292969 C37.4652732,2.17363252 37.4446484,2.09757859 37.4446484,2.00476563 C37.4446484,1.86554618 37.4897652,1.76371126 37.58,1.69925781 C37.6702348,1.63480437 37.8158974,1.60257812 38.0169922,1.60257812 L39.9505859,1.60257812 C40.213556,1.60257812 40.3862887,1.64382771 40.4687891,1.72632812 C40.5564458,1.80882854 40.6002734,1.90679631 40.6002734,2.02023438 C40.6002734,2.12851617 40.5757815,2.20972629 40.5267969,2.26386719 C40.4778123,2.31800808 40.3605087,2.39148391 40.1748828,2.48429688 C39.9016002,2.62351632 39.6953523,2.83749856 39.5561328,3.12625 C39.4581636,3.33765731 39.4091797,3.62382632 39.4091797,3.98476563 L39.4091797,7.51164063 Z" id="outline-N" fill="#FFFFFF" transform="translate(35.758555, 6.881289) rotate(8.000000) translate(-35.758555, -6.881289) "></path>
                    <path d="M48.6692969,5.76257813 L48.6692969,14.8504688 C48.6692969,15.0515635 48.7079684,15.1959371 48.7853125,15.2835938 C48.8265627,15.3351565 48.8652342,15.3673827 48.9013281,15.3802734 C48.9374221,15.3931641 49.0560146,15.4253904 49.2571094,15.4769531 C49.5046106,15.5336722 49.6283594,15.6754676 49.6283594,15.9023438 C49.6283594,16.0364069 49.5613288,16.1446871 49.4272656,16.2271875 C49.3292964,16.2890628 49.164298,16.32 48.9322656,16.32 L44.9722656,16.32 C44.7453895,16.32 44.5739459,16.2851957 44.4579297,16.2155859 C44.3419135,16.1459762 44.2839063,16.0415632 44.2839063,15.9023438 C44.2839063,15.6754676 44.407655,15.5336722 44.6551563,15.4769531 C44.856251,15.4253904 44.9748436,15.3931641 45.0109375,15.3802734 C45.0470314,15.3673827 45.0831248,15.3351565 45.1192188,15.2835938 C45.1965629,15.1959371 45.2352344,15.0515635 45.2352344,14.8504688 L45.2352344,5.76257813 L48.6692969,5.76257813 Z M51.3453906,5.76257813 L51.3453906,8.9259375 C51.3453906,9.0754695 51.302852,9.19664016 51.2177734,9.28945312 C51.1326949,9.38226609 51.0231257,9.42867187 50.8890625,9.42867187 C50.7601556,9.42867187 50.6531645,9.38613324 50.5680859,9.30105469 C50.4830074,9.21597614 50.4275783,9.09867262 50.4017969,8.94914063 L50.3244531,8.47734375 C50.247109,7.9978101 50.0975792,7.58273613 49.8758594,7.23210938 C49.7366399,7.01554579 49.5484387,6.83765695 49.31125,6.6984375 L49.31125,5.76257813 L51.3453906,5.76257813 Z M42.5746094,5.76257813 L44.60875,5.76257813 L44.60875,6.6984375 C44.366405,6.83765695 44.1782038,7.01554579 44.0441406,7.23210938 C43.8224208,7.58273613 43.672891,7.9978101 43.5955469,8.47734375 L43.5182031,8.94914063 C43.4924217,9.09867262 43.4369926,9.21597614 43.3519141,9.30105469 C43.2668355,9.38613324 43.1598444,9.42867187 43.0309375,9.42867187 C42.8968743,9.42867187 42.7873051,9.38226609 42.7022266,9.28945312 C42.617148,9.19664016 42.5746094,9.0754695 42.5746094,8.9259375 L42.5746094,5.76257813 Z" id="outline-T" fill="#FFFFFF" transform="translate(46.960000, 11.041289) rotate(32.000000) translate(-46.960000, -11.041289) "></path>
                </g>
                <path d="M14.2094727,14.2626953 C14.2094727,12.8374023 27.7055664,12.8154297 32.2011719,13.4238281 C33.0368205,13.536918 33.2254628,21.7129538 34.25,30.5366211 C35.9040421,44.781801 38.0648697,67.6336317 36.1625977,91.609375 C33.0820312,130.436035 32.2011719,115.402832 32.2011719,145.467773 C32.2011719,175.532715 42.1787109,173.655273 45.3852539,198.143066 C48.5917969,222.630859 47.5795898,215.49707 48.5917969,254.282227 C49.6040039,293.067383 57.5439453,328.229492 55.9194336,357.603027 C54.2949219,386.976563 45.8388672,427.023437 44.6953125,412.654297 C43.5517578,398.285156 31.8064103,263.840332 30.9301758,251.22168 C30.0539413,238.603028 30.7451172,217.093262 27.7055664,201.834961 C24.6660156,186.57666 12.3897821,171.684612 13.4731445,145.467773 C14.5565069,119.250935 17.1855469,112.930176 18.046875,91.609375 C18.9082031,70.2885742 14.2094727,15.6879883 14.2094727,14.2626953 Z" id="glass-reflection" fill="url(#linearGradient-1)"></path>
            </g>
        </g>
    </g>
</svg>